<svg width="24" height="24" viewBox="0 0 24 24" fill="none" xmlns="http://www.w3.org/2000/svg">
<g clip-path="url(#clip0_64_131)">
<path d="M18.6553 11.8989L19.249 12.3552C19.1286 12.5121 18.951 12.615 18.755 12.6416C18.5591 12.6682 18.3605 12.6163 18.2026 12.4972L18.6553 11.8989ZM16.3139 11.0722C16.1549 10.9521 16.0502 10.7739 16.0227 10.5766C15.9952 10.3794 16.0471 10.1793 16.1671 10.0203C16.2266 9.94165 16.3009 9.87542 16.3859 9.82546C16.471 9.77549 16.565 9.74276 16.6627 9.72914C16.8599 9.70162 17.06 9.75359 17.219 9.87361L16.3139 11.0722ZM19.5001 9.56414C19.6225 9.41015 19.8005 9.31041 19.9958 9.28644C20.191 9.26246 20.3879 9.31617 20.5439 9.43597C20.7 9.55577 20.8027 9.73209 20.8299 9.92691C20.8572 10.1217 20.8068 10.3195 20.6897 10.4775L19.5001 9.56414ZM3.09996 8.34988C3.06178 8.44242 3.00546 8.52638 2.93432 8.59681C2.86318 8.66724 2.77866 8.72272 2.68575 8.75997C2.59283 8.79723 2.49339 8.8155 2.3933 8.81372C2.29321 8.81194 2.19449 8.79014 2.10295 8.7496C2.01142 8.70906 1.92893 8.65061 1.86034 8.5777C1.79175 8.50478 1.73846 8.41886 1.70359 8.32502C1.66873 8.23118 1.65301 8.13131 1.65736 8.0313C1.6617 7.93128 1.68602 7.83315 1.72889 7.74269L3.09996 8.34988ZM8.88635 2.37575C13.8875 1.69725 18.4992 5.1698 19.1744 10.1462L17.688 10.3479C17.1258 6.20383 13.2796 3.29347 9.088 3.86213L8.88635 2.37575ZM19.1744 10.1462L19.3985 11.7981L17.9121 11.9997L17.688 10.3479L19.1744 10.1462ZM18.2017 12.4983L16.3139 11.0722L17.219 9.87361L19.1078 11.2996L18.2017 12.4983ZM18.0586 11.443L19.5001 9.56414L20.6907 10.4774L19.2499 12.3541L18.0586 11.443ZM1.72916 7.74467C2.36347 6.31262 3.35439 5.06714 4.60725 4.12722C5.86011 3.18729 7.33404 2.58417 8.88635 2.37575L9.088 3.86213C7.78935 4.03577 6.55594 4.53974 5.50759 5.32562C4.45923 6.11151 3.62998 7.15316 3.0991 8.351L1.72916 7.74467Z" fill="#FF0000"/>
<path opacity="0.5" d="M2.31399 12.0976L1.71913 11.6404C1.8396 11.4839 2.01696 11.3812 2.21269 11.3546C2.40843 11.3281 2.60674 11.3798 2.76456 11.4986L2.31399 12.0976ZM4.65922 12.9228C4.73796 12.982 4.80426 13.0562 4.85434 13.141C4.90442 13.2259 4.93729 13.3198 4.95109 13.4173C4.97896 13.6143 4.92741 13.8143 4.8078 13.9734C4.68819 14.1324 4.51031 14.2374 4.3133 14.2652C4.11628 14.2931 3.91626 14.2416 3.75724 14.1219L4.65922 12.9228ZM1.46028 14.4336C1.40082 14.5134 1.32607 14.5805 1.24038 14.6311C1.1547 14.6818 1.0598 14.7148 0.961214 14.7284C0.862626 14.742 0.762323 14.7358 0.666147 14.7102C0.569972 14.6846 0.479849 14.6402 0.401029 14.5794C0.322209 14.5187 0.256268 14.4428 0.207048 14.3563C0.157829 14.2699 0.126317 14.1744 0.114346 14.0756C0.102375 13.9768 0.110185 13.8766 0.137321 13.7809C0.164458 13.6852 0.210379 13.5958 0.272407 13.5179L1.46028 14.4336ZM17.9265 15.6368C18.0073 15.455 18.157 15.3127 18.3427 15.2412C18.5284 15.1697 18.7349 15.175 18.9168 15.2558C19.0986 15.3365 19.2409 15.4862 19.3124 15.672C19.3839 15.8577 19.3786 16.0642 19.2979 16.246L17.9265 15.6368ZM12.1127 21.6167C7.0966 22.2972 2.47045 18.8297 1.79491 13.8503L3.28129 13.6486C3.84323 17.7907 7.69958 20.7017 11.911 20.1303L12.1127 21.6167ZM1.79491 13.8503L1.5708 12.1984L3.05719 11.9968L3.28129 13.6486L1.79491 13.8503ZM2.76456 11.4986L4.65922 12.9228L3.75724 14.1219L1.86244 12.6967L2.76456 11.4986ZM2.90787 12.5549L1.46028 14.4336L0.272407 13.5179L1.71913 11.6404L2.90787 12.5549ZM19.2979 16.246C18.6582 17.6802 17.662 18.9257 16.4043 19.866C15.1466 20.8063 13.6692 21.409 12.1127 21.6167L11.911 20.1303C13.2138 19.957 14.4506 19.4531 15.5036 18.6665C16.5566 17.88 17.3907 16.837 17.9265 15.6368L19.2979 16.246Z" fill="#BD5555"/>
</g>
<defs>
<clipPath id="clip0_64_131">
<rect width="24" height="24" fill="white"/>
</clipPath>
</defs>
</svg>
